<svg id="Layer_1" data-name="Layer 1" xmlns="http://www.w3.org/2000/svg" viewBox="0 0 36.96 21.33"><defs><style>.cls-1{fill:#ed2024;}</style></defs><title>Artboard 7 copy 2</title><path class="cls-1" d="M35.39,1.5V19.83H1.5V1.5H35.39m1-1H.5V20.83H36.39V.5Z"/><path class="cls-1" d="M6,13.49a1.88,1.88,0,0,1,.34-1.15,2.38,2.38,0,0,1,.9-.73,4.69,4.69,0,0,1,1.27-.39,8.84,8.84,0,0,1,1.46-.12h.52l.43,0,.42,0,.46.05v-.52a1.51,1.51,0,0,0-.23-.87A1.73,1.73,0,0,0,11,9.31a2.37,2.37,0,0,0-.7-.28,2.92,2.92,0,0,0-.62-.08,4.91,4.91,0,0,0-1.49.22,5.64,5.64,0,0,0-1.27.58l-.48-.8a6.6,6.6,0,0,1,1.46-.65A6,6,0,0,1,9.64,8a4.49,4.49,0,0,1,1.16.15,3.27,3.27,0,0,1,1,.47,2.31,2.31,0,0,1,.73.83,2.57,2.57,0,0,1,.27,1.23v4.74H11.75V14.24a3.45,3.45,0,0,1-.63.61,3.67,3.67,0,0,1-.74.43,4.54,4.54,0,0,1-.78.26,3.31,3.31,0,0,1-.74.09,3.6,3.6,0,0,1-2.17-.55A1.86,1.86,0,0,1,6,13.49Zm2.91,1.23a3.42,3.42,0,0,0,1.2-.2A3.34,3.34,0,0,0,11,14a2.49,2.49,0,0,0,.58-.63,1.18,1.18,0,0,0,.21-.61v-.68a7.71,7.71,0,0,0-1-.09H9.93a7.64,7.64,0,0,0-1.11.08,3.58,3.58,0,0,0-.93.25,1.77,1.77,0,0,0-.64.46,1,1,0,0,0-.24.69,1.11,1.11,0,0,0,.45.84A2.12,2.12,0,0,0,8.86,14.72Z"/><path class="cls-1" d="M21.51,15.45H20.43v-.67a3.33,3.33,0,0,1-1,.63,3,3,0,0,1-1.12.22,4,4,0,0,1-1.54-.28,3.24,3.24,0,0,1-1.15-.78,3.45,3.45,0,0,1-.72-1.2,4.76,4.76,0,0,1,0-3.06,3.45,3.45,0,0,1,.72-1.2,3.29,3.29,0,0,1,1.15-.78A4,4,0,0,1,18.31,8a3.14,3.14,0,0,1,2.13.82V6.22H19V5.31h2.52ZM20.43,9.9a2.81,2.81,0,0,0-1-.73,2.93,2.93,0,0,0-1.14-.23,2.63,2.63,0,0,0-1.12.23,2.31,2.31,0,0,0-.81.61,2.66,2.66,0,0,0-.49.91,4,4,0,0,0,0,2.29,2.66,2.66,0,0,0,.49.91,2.33,2.33,0,0,0,.81.61,2.63,2.63,0,0,0,1.12.22,2.85,2.85,0,0,0,2.14-1Z"/><path class="cls-1" d="M30.2,15.45H29.12v-.67a3.33,3.33,0,0,1-1,.63,3,3,0,0,1-1.12.22,4,4,0,0,1-1.54-.28,3.24,3.24,0,0,1-1.15-.78,3.45,3.45,0,0,1-.72-1.2,4.76,4.76,0,0,1,0-3.06,3.45,3.45,0,0,1,.72-1.2,3.29,3.29,0,0,1,1.15-.78A4,4,0,0,1,27,8a3.14,3.14,0,0,1,2.13.82V6.22H27.67V5.31H30.2ZM29.12,9.9a2.81,2.81,0,0,0-1-.73A2.93,2.93,0,0,0,27,8.95a2.63,2.63,0,0,0-1.12.23,2.31,2.31,0,0,0-.81.61,2.66,2.66,0,0,0-.49.91,4,4,0,0,0,0,2.29,2.66,2.66,0,0,0,.49.91,2.33,2.33,0,0,0,.81.61,2.63,2.63,0,0,0,1.12.22,2.85,2.85,0,0,0,2.14-1Z"/></svg>