<svg id="Layer_1" data-name="Layer 1" xmlns="http://www.w3.org/2000/svg" viewBox="0 0 161.14 22.33"><defs><style>.cls-1{fill:#fff;stroke:#d3d3d3;stroke-miterlimit:10;}.cls-2{fill:#d3d3d3;}</style></defs><title>Artboard 3 copy 3</title><rect class="cls-1" x="1.34" y="1" width="158.55" height="20.33"/><path class="cls-2" d="M13.56,14.29a3.3,3.3,0,0,1-1.25,1.14,4,4,0,0,1-1.89.42,4.18,4.18,0,0,1-1.55-.28,3.51,3.51,0,0,1-1.21-.78,3.55,3.55,0,0,1-.78-1.19,4.07,4.07,0,0,1-.28-1.54,4.42,4.42,0,0,1,.26-1.53,3.45,3.45,0,0,1,.73-1.2,3.31,3.31,0,0,1,1.16-.78,4,4,0,0,1,1.53-.28,3.16,3.16,0,0,1,.68.08,2.78,2.78,0,0,1,.66.24,2.66,2.66,0,0,1,.56.38,1.41,1.41,0,0,1,.37.52v-1h1v2.91h-1a2.15,2.15,0,0,0-.17-.88,2.1,2.1,0,0,0-.48-.68,2.14,2.14,0,0,0-.72-.45,2.51,2.51,0,0,0-.9-.16,2.7,2.7,0,0,0-1.14.22,2.33,2.33,0,0,0-.81.61,2.65,2.65,0,0,0-.49.91,3.75,3.75,0,0,0-.17,1.14,3.33,3.33,0,0,0,.19,1.14,2.57,2.57,0,0,0,.55.9,2.69,2.69,0,0,0,.87.61,2.8,2.8,0,0,0,1.15.22,3.13,3.13,0,0,0,1.44-.32,2.37,2.37,0,0,0,1-.85Z"/><path class="cls-2" d="M22.7,12.08a4.22,4.22,0,0,1-.27,1.54,3.33,3.33,0,0,1-.77,1.18,3.59,3.59,0,0,1-1.2.77,4.17,4.17,0,0,1-1.56.28,4.12,4.12,0,0,1-1.55-.28,3.59,3.59,0,0,1-1.2-.77,3.33,3.33,0,0,1-.77-1.18,4.22,4.22,0,0,1-.27-1.54,4.31,4.31,0,0,1,.27-1.53,3.37,3.37,0,0,1,.77-1.21,3.57,3.57,0,0,1,1.2-.78,4.07,4.07,0,0,1,1.55-.28,4.12,4.12,0,0,1,1.56.28,3.57,3.57,0,0,1,1.2.78,3.37,3.37,0,0,1,.77,1.21A4.31,4.31,0,0,1,22.7,12.08Zm-1.06,0a3.47,3.47,0,0,0-.18-1.14,2.67,2.67,0,0,0-.54-.92,2.54,2.54,0,0,0-.87-.62,3,3,0,0,0-2.29,0,2.45,2.45,0,0,0-.86.62,2.72,2.72,0,0,0-.53.92,3.68,3.68,0,0,0,0,2.29,2.55,2.55,0,0,0,.53.9,2.44,2.44,0,0,0,.86.6,3.13,3.13,0,0,0,2.29,0,2.54,2.54,0,0,0,.87-.6,2.51,2.51,0,0,0,.54-.9A3.47,3.47,0,0,0,21.64,12.08Z"/><path class="cls-2" d="M31.2,12.06a4.29,4.29,0,0,1-.26,1.54,3.53,3.53,0,0,1-.74,1.19,3.34,3.34,0,0,1-1.15.78,3.92,3.92,0,0,1-1.51.28,3.05,3.05,0,0,1-1.11-.21,3.33,3.33,0,0,1-1-.62v3.55H24.34V8.43h1.06v.68a3.2,3.2,0,0,1,2.12-.85A4,4,0,0,1,29,8.54a3.24,3.24,0,0,1,1.15.78,3.59,3.59,0,0,1,.74,1.21A4.31,4.31,0,0,1,31.2,12.06Zm-1.06,0A3.77,3.77,0,0,0,30,10.93a2.58,2.58,0,0,0-.5-.92,2.4,2.4,0,0,0-.82-.61,2.66,2.66,0,0,0-1.12-.22,2.85,2.85,0,0,0-1.13.22,3,3,0,0,0-1,.73V14a2.84,2.84,0,0,0,1,.72,2.93,2.93,0,0,0,1.13.22,2.64,2.64,0,0,0,1.12-.22,2.4,2.4,0,0,0,.82-.61,2.58,2.58,0,0,0,.5-.91A3.69,3.69,0,0,0,30.14,12.07Z"/><path class="cls-2" d="M40.11,8.43,36.2,17.51a1.68,1.68,0,0,1-.85,1,3.05,3.05,0,0,1-1.22.24,4.3,4.3,0,0,1-1.49-.27l.21-.92a3.46,3.46,0,0,0,.71.22,3.19,3.19,0,0,0,.57.07.87.87,0,0,0,.73-.26A2.72,2.72,0,0,0,35.2,17l.44-1.09L32.41,8.43h1.26l2.61,6.33,2.56-6.33Z"/><path class="cls-2" d="M57.33,13.37a2.69,2.69,0,0,1-.9,1.81,2.83,2.83,0,0,1-1.93.67,3.13,3.13,0,0,1-1.17-.21,2.62,2.62,0,0,1-.9-.58,2.59,2.59,0,0,1-.58-.9A3.12,3.12,0,0,1,51.66,13V9.34H50V8.43h1.64V5.54h1.06v2.9H55.8v.91H52.72V13a2.16,2.16,0,0,0,.13.75,2,2,0,0,0,.36.61,1.64,1.64,0,0,0,.56.42,1.74,1.74,0,0,0,.75.15,1.87,1.87,0,0,0,1.32-.49,1.94,1.94,0,0,0,.61-1.28Z"/><path class="cls-2" d="M66.13,12.08a4.22,4.22,0,0,1-.27,1.54,3.33,3.33,0,0,1-.77,1.18,3.59,3.59,0,0,1-1.2.77,4.17,4.17,0,0,1-1.56.28,4.12,4.12,0,0,1-1.55-.28,3.59,3.59,0,0,1-1.2-.77,3.33,3.33,0,0,1-.77-1.18,4.22,4.22,0,0,1-.27-1.54,4.31,4.31,0,0,1,.27-1.53,3.37,3.37,0,0,1,.77-1.21,3.57,3.57,0,0,1,1.2-.78,4.07,4.07,0,0,1,1.55-.28,4.12,4.12,0,0,1,1.56.28,3.57,3.57,0,0,1,1.2.78,3.37,3.37,0,0,1,.77,1.21A4.31,4.31,0,0,1,66.13,12.08Zm-1.06,0a3.47,3.47,0,0,0-.18-1.14,2.67,2.67,0,0,0-.54-.92,2.54,2.54,0,0,0-.87-.62,3,3,0,0,0-2.29,0,2.45,2.45,0,0,0-.86.62,2.72,2.72,0,0,0-.53.92,3.68,3.68,0,0,0,0,2.29,2.55,2.55,0,0,0,.53.9,2.44,2.44,0,0,0,.86.6,3.13,3.13,0,0,0,2.29,0,2.54,2.54,0,0,0,.87-.6,2.51,2.51,0,0,0,.54-.9A3.47,3.47,0,0,0,65.06,12.08Z"/><path class="cls-2" d="M83,14.29a3.3,3.3,0,0,1-1.25,1.14,4,4,0,0,1-1.89.42,4.18,4.18,0,0,1-1.55-.28,3.51,3.51,0,0,1-1.21-.78,3.55,3.55,0,0,1-.78-1.19,4.07,4.07,0,0,1-.28-1.54,4.42,4.42,0,0,1,.26-1.53,3.45,3.45,0,0,1,.73-1.2,3.31,3.31,0,0,1,1.16-.78,4,4,0,0,1,1.53-.28,3.16,3.16,0,0,1,.68.08,2.78,2.78,0,0,1,.66.24,2.66,2.66,0,0,1,.56.38,1.41,1.41,0,0,1,.37.52v-1h1v2.91H82a2.15,2.15,0,0,0-.17-.88,2.1,2.1,0,0,0-.48-.68,2.14,2.14,0,0,0-.72-.45,2.51,2.51,0,0,0-.9-.16,2.7,2.7,0,0,0-1.14.22,2.33,2.33,0,0,0-.81.61,2.65,2.65,0,0,0-.49.91,3.75,3.75,0,0,0-.17,1.14,3.33,3.33,0,0,0,.19,1.14,2.57,2.57,0,0,0,.55.9,2.69,2.69,0,0,0,.87.61,2.8,2.8,0,0,0,1.15.22,3.13,3.13,0,0,0,1.44-.32,2.37,2.37,0,0,0,1-.85Z"/><path class="cls-2" d="M90.54,15.67H86.2v-.91h1.62V6.44H86.2V5.54h2.7v9.23h1.63Z"/><path class="cls-2" d="M99.22,15.67H94.89v-.91h1.62V9.34H94.89V8.43h2.7v6.33h1.63ZM97.78,7H96.33V5.54h1.45Z"/><path class="cls-2" d="M109.37,12.06a4.29,4.29,0,0,1-.26,1.54,3.53,3.53,0,0,1-.74,1.19,3.34,3.34,0,0,1-1.15.78,3.92,3.92,0,0,1-1.51.28,3.05,3.05,0,0,1-1.11-.21,3.33,3.33,0,0,1-1-.62v3.55h-1.06V8.43h1.06v.68a3.2,3.2,0,0,1,2.12-.85,4,4,0,0,1,1.51.28,3.24,3.24,0,0,1,1.15.78,3.59,3.59,0,0,1,.74,1.21A4.31,4.31,0,0,1,109.37,12.06Zm-1.06,0a3.77,3.77,0,0,0-.17-1.14,2.58,2.58,0,0,0-.5-.92,2.4,2.4,0,0,0-.82-.61,2.66,2.66,0,0,0-1.12-.22,2.85,2.85,0,0,0-1.13.22,3,3,0,0,0-1,.73V14a2.84,2.84,0,0,0,1,.72,2.93,2.93,0,0,0,1.13.22,2.64,2.64,0,0,0,1.12-.22,2.4,2.4,0,0,0,.82-.61,2.58,2.58,0,0,0,.5-.91A3.69,3.69,0,0,0,108.3,12.07Z"/><path class="cls-2" d="M118.05,12.06a4.41,4.41,0,0,1-.26,1.53,3.41,3.41,0,0,1-.73,1.2,3.33,3.33,0,0,1-1.15.78,3.92,3.92,0,0,1-1.51.28,3.09,3.09,0,0,1-1.13-.21,3.33,3.33,0,0,1-1-.62v.65h-1.06V5.54h1.06V9.11a3.71,3.71,0,0,1,1-.62,2.93,2.93,0,0,1,1.13-.22,3.87,3.87,0,0,1,1.51.28,3.36,3.36,0,0,1,1.15.78,3.4,3.4,0,0,1,.73,1.2A4.42,4.42,0,0,1,118.05,12.06Zm-1.08,0a3.91,3.91,0,0,0-.16-1.14,2.55,2.55,0,0,0-.49-.91,2.33,2.33,0,0,0-.81-.61,2.66,2.66,0,0,0-1.12-.22,2.84,2.84,0,0,0-2.14,1V14a2.82,2.82,0,0,0,1,.72,3,3,0,0,0,1.14.22,2.59,2.59,0,0,0,1.12-.22,2.34,2.34,0,0,0,.8-.61,2.64,2.64,0,0,0,.49-.91A3.69,3.69,0,0,0,117,12.07Z"/><path class="cls-2" d="M126.92,12.08a4.22,4.22,0,0,1-.27,1.54,3.33,3.33,0,0,1-.77,1.18,3.59,3.59,0,0,1-1.2.77,4.17,4.17,0,0,1-1.56.28,4.12,4.12,0,0,1-1.55-.28,3.59,3.59,0,0,1-1.2-.77,3.33,3.33,0,0,1-.77-1.18,4.22,4.22,0,0,1-.27-1.54,4.31,4.31,0,0,1,.27-1.53,3.37,3.37,0,0,1,.77-1.21,3.57,3.57,0,0,1,1.2-.78,4.07,4.07,0,0,1,1.55-.28,4.12,4.12,0,0,1,1.56.28,3.57,3.57,0,0,1,1.2.78,3.37,3.37,0,0,1,.77,1.21A4.31,4.31,0,0,1,126.92,12.08Zm-1.06,0a3.47,3.47,0,0,0-.18-1.14,2.67,2.67,0,0,0-.54-.92,2.54,2.54,0,0,0-.87-.62,3,3,0,0,0-2.29,0,2.45,2.45,0,0,0-.86.62,2.72,2.72,0,0,0-.53.92,3.68,3.68,0,0,0,0,2.29,2.55,2.55,0,0,0,.53.9,2.44,2.44,0,0,0,.86.6,3.13,3.13,0,0,0,2.29,0,2.54,2.54,0,0,0,.87-.6,2.51,2.51,0,0,0,.54-.9A3.47,3.47,0,0,0,125.86,12.08Z"/><path class="cls-2" d="M128.16,13.72a1.88,1.88,0,0,1,.34-1.15,2.38,2.38,0,0,1,.9-.73,4.7,4.7,0,0,1,1.27-.39,8.84,8.84,0,0,1,1.46-.12h.52l.43,0,.42,0,.46.05v-.52a1.53,1.53,0,0,0-.23-.87,1.75,1.75,0,0,0-.56-.54,2.4,2.4,0,0,0-.7-.28,3,3,0,0,0-.62-.08,4.88,4.88,0,0,0-1.49.22,5.69,5.69,0,0,0-1.27.58l-.48-.8a6.53,6.53,0,0,1,1.46-.65,5.93,5.93,0,0,1,1.78-.25,4.53,4.53,0,0,1,1.16.15,3.28,3.28,0,0,1,1,.47,2.3,2.3,0,0,1,.73.83,2.58,2.58,0,0,1,.27,1.23v4.74H134V14.46a3.45,3.45,0,0,1-.63.61,3.61,3.61,0,0,1-.74.43,4.54,4.54,0,0,1-.78.26,3.3,3.3,0,0,1-.74.09,3.6,3.6,0,0,1-2.17-.55A1.86,1.86,0,0,1,128.16,13.72Zm2.91,1.23a3.4,3.4,0,0,0,1.2-.2,3.27,3.27,0,0,0,.9-.49,2.47,2.47,0,0,0,.58-.63A1.18,1.18,0,0,0,134,13v-.68a7.53,7.53,0,0,0-1-.09h-.83a7.64,7.64,0,0,0-1.11.08,3.59,3.59,0,0,0-.93.25,1.76,1.76,0,0,0-.64.45,1,1,0,0,0-.24.69,1.11,1.11,0,0,0,.45.84A2.11,2.11,0,0,0,131.08,14.94Z"/><path class="cls-2" d="M143.71,9.46a3,3,0,0,0-1.37-.29,2.39,2.39,0,0,0-1.17.28,2.8,2.8,0,0,0-.87.73,3.31,3.31,0,0,0-.55,1,3.88,3.88,0,0,0-.19,1.21v2.33h1.64v.91h-4.34v-.91h1.64V9.34h-1.64V8.43h2.7v1.82a2.74,2.74,0,0,1,2.77-2,5.6,5.6,0,0,1,1,.07,2.61,2.61,0,0,1,.76.25Z"/><path class="cls-2" d="M152.41,15.67h-1.08V15a3.32,3.32,0,0,1-1,.63,3,3,0,0,1-1.12.22,4,4,0,0,1-1.54-.28,3.23,3.23,0,0,1-1.15-.78,3.44,3.44,0,0,1-.72-1.2,4.76,4.76,0,0,1,0-3.06,3.43,3.43,0,0,1,.72-1.2,3.27,3.27,0,0,1,1.15-.78,4,4,0,0,1,1.54-.28,3.16,3.16,0,0,1,2.13.82V6.44h-1.44V5.54h2.52Zm-1.08-5.55a2.82,2.82,0,0,0-1-.73,3,3,0,0,0-1.14-.22,2.64,2.64,0,0,0-1.12.22,2.31,2.31,0,0,0-.81.61,2.63,2.63,0,0,0-.49.91,4,4,0,0,0,0,2.29,2.62,2.62,0,0,0,.49.91,2.31,2.31,0,0,0,.81.61,2.64,2.64,0,0,0,1.12.22,2.85,2.85,0,0,0,2.14-1Z"/></svg>