<svg id="Layer_1" data-name="Layer 1" xmlns="http://www.w3.org/2000/svg" viewBox="0 0 22.33 40.88"><defs><style>.cls-1{fill:#fff;}.cls-2{fill:#ed2024;}</style></defs><title>Artboard 3 copy</title><polygon class="cls-1" points="0.5 40.38 0.5 14.72 10.81 0.82 21.83 14.59 21.83 40.38 0.5 40.38"/><path class="cls-2" d="M10.83,1.64,21.33,14.76V39.88H1v-25L10.83,1.64M10.8,0,0,14.55V40.88H22.33V14.41L10.8,0Z"/><path class="cls-2" d="M15.14,29.37v1.06H9.95a1.79,1.79,0,0,0-1,.22.7.7,0,0,0-.34.63.93.93,0,0,0,.64.89,4.52,4.52,0,0,0,1.79.28h4.08v1.08H9.95a1.76,1.76,0,0,0-1,.22.71.71,0,0,0-.34.63.82.82,0,0,0,.23.61,1.54,1.54,0,0,0,.57.35,3,3,0,0,0,.78.17c.28,0,.57,0,.85,0h4.08v1.06H7.9V35.54H9a1.49,1.49,0,0,1-.15-2.9,1.72,1.72,0,0,1-.52-2.85,2.65,2.65,0,0,1,1.66-.43Z"/><path class="cls-2" d="M13.19,27.94A1.88,1.88,0,0,1,12,27.6a2.38,2.38,0,0,1-.73-.9,4.72,4.72,0,0,1-.39-1.27A8.85,8.85,0,0,1,10.8,24c0-.19,0-.36,0-.52s0-.3,0-.43,0-.28,0-.42l.05-.46h-.52a1.52,1.52,0,0,0-.87.23,1.75,1.75,0,0,0-.54.56,2.38,2.38,0,0,0-.28.7,2.92,2.92,0,0,0-.08.62,4.91,4.91,0,0,0,.22,1.49A5.68,5.68,0,0,0,9.44,27l-.8.48A6.6,6.6,0,0,1,8,26a6,6,0,0,1-.25-1.78,4.53,4.53,0,0,1,.15-1.16,3.28,3.28,0,0,1,.47-1,2.31,2.31,0,0,1,.83-.73,2.57,2.57,0,0,1,1.23-.27h4.74v1.08H13.93a3.42,3.42,0,0,1,.61.63,3.63,3.63,0,0,1,.43.74,4.53,4.53,0,0,1,.26.78,3.31,3.31,0,0,1,.09.74,3.59,3.59,0,0,1-.55,2.18A1.86,1.86,0,0,1,13.19,27.94ZM14.41,25a3.42,3.42,0,0,0-.2-1.2,3.33,3.33,0,0,0-.49-.9,2.45,2.45,0,0,0-.63-.58,1.18,1.18,0,0,0-.61-.21H11.8a7.69,7.69,0,0,0-.09,1c0,.32,0,.59,0,.83a7.65,7.65,0,0,0,.08,1.11A3.62,3.62,0,0,0,12,26a1.77,1.77,0,0,0,.46.64,1,1,0,0,0,.69.24,1.11,1.11,0,0,0,.84-.45A2.11,2.11,0,0,0,14.41,25Z"/><path class="cls-2" d="M15.14,11.83v3H14.2v-.64l-2.1,1.43L14.2,17v-.58h.94v3H14.2V18.27l-2.73-2L8.86,18.19v1h-1v-3h1v.67l2-1.32-2-1.34V15h-1V12h1v1l2.61,1.91,2.73-2V11.83Z"/></svg>