<svg id="Layer_1" data-name="Layer 1" xmlns="http://www.w3.org/2000/svg" viewBox="0 0 22.33 40.88"><defs><style>.cls-1{fill:#fff;}.cls-2{fill:#ed2024;}</style></defs><title>Artboard 3</title><polygon class="cls-1" points="0.5 26.29 0.5 0.5 21.83 0.5 21.83 26.16 11.52 40.06 0.5 26.29"/><path class="cls-2" d="M21.33,1V26L11.51,39.24,1,26.11V1H21.33m1-1H0V26.46L11.54,40.88l10.8-14.55V0Z"/><path class="cls-2" d="M15.14,22.08v1.06H9.95a1.79,1.79,0,0,0-1,.22.7.7,0,0,0-.34.63.93.93,0,0,0,.64.89,4.51,4.51,0,0,0,1.78.28h4.08v1.08H9.95a1.77,1.77,0,0,0-1,.22.71.71,0,0,0-.34.63.82.82,0,0,0,.23.61,1.55,1.55,0,0,0,.57.35,3,3,0,0,0,.78.17q.43,0,.85,0h4.08v1.06H7.9V28.26H9a1.49,1.49,0,0,1-.16-2.9,1.72,1.72,0,0,1-.52-2.85,2.66,2.66,0,0,1,1.66-.43Z"/><path class="cls-2" d="M6.46,16.3v1.45H5V16.3Zm8.68-1.45v4.33h-.91V17.57H8.81v1.62H7.9v-2.7h6.33V14.86Z"/><path class="cls-2" d="M15.14,5.09V6.17H10.68a2.39,2.39,0,0,0-1.51.42,1.62,1.62,0,0,0-.54,1.36A2.12,2.12,0,0,0,8.91,9a2.59,2.59,0,0,0,.73.81,3.35,3.35,0,0,0,1,.51,4.26,4.26,0,0,0,1.22.17h3.24v1.06H7.9V10.51H9.72a2.77,2.77,0,0,1-2-2.74q0-2.67,2.94-2.67Z"/></svg>