<svg id="Layer_1" data-name="Layer 1" xmlns="http://www.w3.org/2000/svg" viewBox="0 0 60.88 22.33"><defs><style>.cls-1{fill:#fff;}</style></defs><title>next</title><path class="cls-1" d="M46,1H11.83V21.33H46.11L59.24,10.83ZM22.7,15.85H21.62V11.38a2.39,2.39,0,0,0-.42-1.5,1.62,1.62,0,0,0-1.36-.54,2.11,2.11,0,0,0-1.07.27,2.57,2.57,0,0,0-.81.73,3.35,3.35,0,0,0-.51,1,4.26,4.26,0,0,0-.17,1.22v3.24H16.22V8.61h1.06v1.82a2.76,2.76,0,0,1,2.74-2q2.67,0,2.67,2.94Zm3.73-1.41a2.62,2.62,0,0,0,1.88.68,3.08,3.08,0,0,0,1.45-.33,2.46,2.46,0,0,0,1-.83l.75.51a3.75,3.75,0,0,1-1.3,1.16,3.92,3.92,0,0,1-1.86.4,4.1,4.1,0,0,1-1.54-.28A3.6,3.6,0,0,1,25.56,15a3.48,3.48,0,0,1-.79-1.19,4.07,4.07,0,0,1-.28-1.54,4.42,4.42,0,0,1,.25-1.52,3.47,3.47,0,0,1,.73-1.2,3.31,3.31,0,0,1,1.16-.79,4,4,0,0,1,1.53-.28,3.91,3.91,0,0,1,1.62.31,3.19,3.19,0,0,1,1.15.86,3.52,3.52,0,0,1,.68,1.31,6,6,0,0,1,.22,1.69H25.59A2.81,2.81,0,0,0,26.43,14.43Zm14.19,1.41h-3v-.94h.64l-1.43-2.1-1.41,2.1H36v.94h-3v-.94h1.13l2-2.73L34.26,9.56h-1v-1h3v1h-.67l1.32,2,1.34-2h-.73v-1h3v1h-1l-1.91,2.61,2,2.73h1.11Zm5.76.18a3.13,3.13,0,0,1-1.17-.21,2.55,2.55,0,0,1-1.48-1.48,3.12,3.12,0,0,1-.21-1.15V9.52H41.89V8.61h1.64V5.71H44.6v2.9h3.08v.91H44.6v3.67a2.14,2.14,0,0,0,.13.75,1.92,1.92,0,0,0,.36.61,1.64,1.64,0,0,0,.55.42,1.76,1.76,0,0,0,.75.15,1.87,1.87,0,0,0,1.32-.49,1.94,1.94,0,0,0,.61-1.28l.89.19a2.69,2.69,0,0,1-.9,1.81A2.84,2.84,0,0,1,46.38,16Z"/><path class="cls-1" d="M28.17,9.34a2.64,2.64,0,0,0-.95.17,2.36,2.36,0,0,0-.77.48,2.67,2.67,0,0,0-.56.75,2.81,2.81,0,0,0-.29,1h5.11a2.76,2.76,0,0,0-.86-1.77A2.52,2.52,0,0,0,28.17,9.34Z"/></svg>